<svg width="1920" height="533" viewBox="0 0 1920 533" fill="none" xmlns="http://www.w3.org/2000/svg">
<path d="M0 12.1282C61.6667 -5.87177 195.8 -12.5718 239 104.628C293 251.128 222 367.628 427.5 460.128C633 552.628 963.434 400.182 911 337.128C871.5 289.628 794 491.128 839.5 514.628C885 538.128 915.716 555.304 1156.5 433.128C1291.5 364.628 1414.5 386.128 1456.5 433.128C1498.5 480.128 1574.5 574.128 1675.5 498.628C1776.5 423.128 1815 338.628 1838.5 278.128C1862 217.628 1936 224.628 1966.5 308.628" stroke="url(#paint0_linear_264_141)" stroke-width="3" stroke-linecap="round" stroke-dasharray="15 15"/>
<defs>
<linearGradient id="paint0_linear_264_141" x1="-1.67502e-05" y1="49.6615" x2="1604.47" y2="968.936" gradientUnits="userSpaceOnUse">
<stop stop-color="#F40578"/>
<stop offset="1" stop-color="#00A7FF"/>
</linearGradient>
</defs>
</svg>
