<svg id="visual" viewBox="0 0 600 900" width="600" height="900" xmlns="http://www.w3.org/2000/svg" xmlns:xlink="http://www.w3.org/1999/xlink" version="1.1"><g fill="none" stroke="#d80050" stroke-width="3"><path d="M31.8 18.4L31.8 82.1L-31.8 82.1L-31.8 18.4L-87 -13.5L-55.2 -68.6L0 -36.8L55.2 -68.6L87 -13.5Z" transform="translate(98 26)"></path><path d="M14 8.1L14 36.2L-14 36.2L-14 8.1L-38.3 -5.9L-24.3 -30.2L0 -16.2L24.3 -30.2L38.3 -5.9Z" transform="translate(465 303)"></path><path d="M18.6 10.8L18.6 48L-18.6 48L-18.6 10.8L-50.9 -7.9L-32.3 -40.1L0 -21.5L32.3 -40.1L50.9 -7.9Z" transform="translate(426 696)"></path><path d="M24.6 14.2L24.6 63.3L-24.6 63.3L-24.6 14.2L-67.1 -10.4L-42.5 -52.9L0 -28.4L42.5 -52.9L67.1 -10.4Z" transform="translate(452 8)"></path></g></svg>